<?xml version="1.0" standalone="no"?>
<!DOCTYPE svg PUBLIC "-//W3C//DTD SVG 20010904//EN"
 "http://www.w3.org/TR/2001/REC-SVG-20010904/DTD/svg10.dtd">
<svg version="1.0" xmlns="http://www.w3.org/2000/svg"
 width="678.000000pt" height="678.000000pt" viewBox="0 0 678.000000 678.000000"
 preserveAspectRatio="xMidYMid meet">
<metadata>
Created by potrace 1.11, written by Peter Selinger 2001-2013
</metadata>
<g transform="translate(0.000000,678.000000) scale(0.100000,-0.100000)"
fill="#000000" stroke="none">
<path d="M3165 6704 c-16 -2 -79 -9 -140 -15 -986 -99 -1912 -679 -2449 -1533
-448 -714 -606 -1583 -440 -2416 172 -863 697 -1636 1440 -2123 412 -270 892
-445 1409 -514 162 -21 598 -24 755 -5 979 120 1793 601 2358 1392 282 396
495 929 566 1420 148 1023 -180 2046 -894 2783 -538 556 -1203 889 -1981 993
-107 14 -557 27 -624 18z m610 -48 c174 -23 289 -45 430 -81 1144 -296 2042
-1184 2350 -2323 82 -305 109 -516 109 -857 -1 -349 -33 -591 -119 -894 -490
-1718 -2252 -2730 -3980 -2286 -1215 312 -2162 1312 -2400 2535 -49 256 -59
359 -59 645 0 334 26 546 104 840 346 1312 1477 2283 2825 2424 55 6 116 13
135 15 74 9 500 -4 605 -18z"/>
<path d="M3175 6604 c-16 -2 -79 -9 -140 -15 -727 -72 -1439 -420 -1956 -956
-785 -815 -1088 -1961 -804 -3048 369 -1415 1650 -2405 3110 -2405 1123 0
2174 594 2752 1555 773 1284 558 2932 -518 3970 -508 490 -1130 788 -1841 881
-115 15 -534 28 -603 18z m-837 -3287 c166 -496 302 -905 302 -909 0 -5 -56
-8 -125 -8 l-124 0 -82 255 -83 255 -347 0 -348 0 -74 -232 c-41 -128 -78
-243 -82 -255 -6 -22 -10 -23 -129 -23 l-123 0 198 588 c109 323 246 732 306
910 l108 322 150 0 150 0 303 -903z m1127 892 c333 -33 565 -185 695 -454 60
-122 81 -223 87 -405 4 -129 2 -171 -15 -250 -40 -192 -113 -332 -243 -462
-75 -75 -100 -93 -190 -136 -177 -85 -291 -102 -704 -102 l-275 0 0 910 0 910
268 0 c148 0 318 -5 377 -11z m2135 -94 l0 -105 -420 0 -420 0 0 -260 0 -260
405 0 405 0 0 -105 0 -105 -405 0 -405 0 0 -440 0 -440 -125 0 -125 0 0 910 0
910 545 0 545 0 0 -105z"/>
<path d="M1738 3543 c-76 -230 -136 -419 -134 -420 2 -2 127 -2 278 -1 l275 3
-134 410 c-74 226 -138 413 -142 417 -4 5 -68 -180 -143 -409z"/>
<path d="M3060 3310 l0 -703 203 6 c161 4 218 9 280 26 223 59 370 203 429
418 17 65 21 107 22 248 1 148 -2 180 -22 248 -64 224 -203 361 -434 428 -60
17 -109 22 -275 26 l-203 6 0 -703z"/>
</g>
</svg>
